<svg width="24" height="24" viewBox="0 0 24 24" fill="none" xmlns="http://www.w3.org/2000/svg">
<path d="M22.9983 16.5343L20.8553 14.3913C20.2165 13.7576 19.3542 13.4004 18.4544 13.3965C17.5546 13.3927 16.6894 13.7426 16.0452 14.3709C15.7015 14.7166 15.248 14.9316 14.7628 14.9791C14.2777 15.0266 13.7911 14.9035 13.3869 14.631C11.7915 13.5662 10.421 12.1983 9.3532 10.605C9.08548 10.1963 8.96682 9.70777 9.01721 9.22178C9.0676 8.7358 9.28396 8.28203 9.62984 7.93693C10.2524 7.29215 10.5978 6.42929 10.5921 5.53303C10.5865 4.63677 10.2302 3.77833 9.59964 3.14144L7.45664 0.998415C6.81505 0.359022 5.94619 0 5.04041 0C4.13462 0 3.26576 0.359022 2.62417 0.998415L2.00757 1.61599C-1.20693 4.83053 -0.966333 11.5888 5.72178 18.2731C9.75452 22.3069 13.8136 23.996 17.105 23.996C18.0739 24.0282 19.0395 23.8673 19.9456 23.5226C20.8517 23.178 21.6802 22.6564 22.3826 21.9883L23.0002 21.3708C23.6408 20.7289 24.0004 19.859 24 18.9521C23.9996 18.0453 23.6393 17.1757 22.9983 16.5343ZM21.6209 19.9934L21.0033 20.611C18.4707 23.1436 12.8804 22.6809 7.0972 16.8967C1.31402 11.1125 0.850349 5.51824 3.38299 2.98558L3.99569 2.36897C4.27156 2.0941 4.64512 1.93976 5.03456 1.93976C5.424 1.93976 5.79756 2.0941 6.07343 2.36897L8.21643 4.512C8.48729 4.78421 8.64103 5.15151 8.64486 5.53551C8.64868 5.91951 8.50227 6.28979 8.23689 6.56735C7.57867 7.22976 7.16809 8.09826 7.07392 9.02734C6.97975 9.95642 7.20773 10.8896 7.71964 11.6707C8.93292 13.4863 10.4931 15.0442 12.3105 16.2548C13.0892 16.7668 14.02 16.9961 14.9474 16.9044C15.8748 16.8128 16.7426 16.4057 17.406 15.7512C17.683 15.4826 18.0544 15.3335 18.4402 15.3359C18.826 15.3383 19.1954 15.4919 19.4691 15.7638L21.6121 17.9069C21.7503 18.043 21.8601 18.2051 21.9353 18.3838C22.0106 18.5625 22.0497 18.7544 22.0505 18.9483C22.0513 19.1422 22.0138 19.3344 21.9401 19.5137C21.8663 19.6931 21.7579 19.8561 21.6209 19.9934Z" fill="#DADADA"/>
</svg>
